<?xml version="1.0" encoding="UTF-8"?><svg id="Lag_2" xmlns="http://www.w3.org/2000/svg" viewBox="0 0 795.43 1048.54"><defs><style>.cls-1{fill:#fff;stroke-width:0px;}</style></defs><path class="cls-1" d="m696.87,540.66c0,2.28-.59,4.26-1.76,5.97-1.17,1.71-3.22,3.06-6.15,4.05-2.93,1-6.66,1.85-11.2,2.56-4.54.71-10.47,1.07-17.78,1.07-6.74,0-12.52-.36-17.35-1.07-4.83-.71-8.63-1.56-11.42-2.56-2.79-.99-4.76-2.34-5.93-4.05-1.17-1.71-1.75-3.69-1.75-5.97V60.12h-.85l-194.43,482.67c-.85,1.99-2.07,3.7-3.62,5.12-1.57,1.43-3.84,2.63-6.82,3.62-2.98.99-6.54,1.71-10.66,2.13-4.12.43-9.03.64-14.71.64-5.97,0-11.09-.29-15.35-.85-4.26-.57-7.82-1.35-10.66-2.34-2.84-.99-5.05-2.2-6.61-3.62-1.57-1.42-2.63-2.99-3.2-4.69L170.71,60.12h-.43v480.54c0,2.28-.59,4.26-1.76,5.97-1.17,1.71-3.22,3.06-6.15,4.05-2.93,1-6.74,1.85-11.42,2.56-4.68.71-10.69,1.07-18,1.07s-12.89-.36-17.57-1.07c-4.68-.71-8.41-1.56-11.2-2.56-2.79-.99-4.68-2.34-5.71-4.05-1.03-1.71-1.53-3.69-1.53-5.97V33.26c0-11.94,3.17-20.47,9.52-25.58S119.89,0,127.68,0h45.03c9.23,0,17.32.85,24.24,2.56s12.98,4.41,18.18,8.1c5.2,3.7,9.53,8.39,12.99,14.07,3.46,5.69,6.5,12.37,9.09,20.04l157.76,399.53h2.13L561.28,46.05c3.17-8.53,6.64-15.78,10.39-21.75,3.76-5.97,7.88-10.73,12.35-14.28,4.48-3.55,9.45-6.11,14.94-7.68,5.48-1.56,11.84-2.35,19.06-2.35h47.22c4.33,0,8.45.64,12.34,1.92s7.22,3.27,9.97,5.97c2.75,2.71,4.98,6.12,6.72,10.23,1.73,4.12,2.6,9.17,2.6,15.14v507.4Z"/><path class="cls-1" d="m696.87,911.96c0,2.28-.59,4.26-1.76,5.97-1.17,1.71-3.22,3.06-6.15,4.05-2.93,1-6.66,1.85-11.2,2.56-4.54.71-10.47,1.07-17.78,1.07-6.74,0-12.52-.36-17.35-1.07-4.83-.71-8.63-1.56-11.42-2.56-2.79-.99-4.76-2.34-5.93-4.05-1.17-1.71-1.75-3.69-1.75-5.97v-480.54h-.85l-194.43,482.67c-.85,1.99-2.07,3.7-3.62,5.12-1.57,1.43-3.84,2.63-6.82,3.62-2.98.99-6.54,1.71-10.66,2.13-4.12.43-9.03.64-14.71.64-5.97,0-11.09-.29-15.35-.85-4.26-.57-7.82-1.35-10.66-2.34-2.84-.99-5.05-2.2-6.61-3.62-1.57-1.42-2.63-2.99-3.2-4.69l-185.91-482.67h-.43v480.54c0,2.28-.59,4.26-1.76,5.97-1.17,1.71-3.22,3.06-6.15,4.05-2.93,1-6.74,1.85-11.42,2.56-4.68.71-10.69,1.07-18,1.07s-12.89-.36-17.57-1.07c-4.68-.71-8.41-1.56-11.2-2.56-2.79-.99-4.68-2.34-5.71-4.05-1.03-1.71-1.53-3.69-1.53-5.97v-507.4c0-11.94,3.17-20.47,9.52-25.58s13.42-7.68,21.22-7.68h45.03c9.23,0,17.32.85,24.24,2.56s12.98,4.41,18.18,8.1c5.2,3.7,9.53,8.39,12.99,14.07,3.46,5.69,6.5,12.37,9.09,20.04l157.76,399.53h2.13l164.16-398.25c3.17-8.53,6.64-15.78,10.39-21.75,3.76-5.97,7.88-10.73,12.35-14.28,4.48-3.55,9.45-6.11,14.94-7.68,5.48-1.56,11.84-2.35,19.06-2.35h47.22c4.33,0,8.45.64,12.34,1.92s7.22,3.27,9.97,5.97c2.75,2.71,4.98,6.12,6.72,10.23,1.73,4.12,2.6,9.17,2.6,15.14v507.4Z"/><path class="cls-1" d="m13.7,1048.54c-2.29,0-4.28-.59-5.99-1.77s-3.07-3.23-4.07-6.17c-1-2.94-1.85-6.69-2.57-11.24-.71-4.56-1.07-10.51-1.07-17.85,0-6.76.36-12.57,1.07-17.42.72-4.85,1.56-8.67,2.57-11.46,1-2.8,2.35-4.78,4.07-5.95s3.71-1.76,5.99-1.76c0,0,732.15-1.25,781.73-.37v42.24c0,4.35-.64,8.48-1.93,12.39-1.28,3.91-3.28,7.25-5.99,10.01-2.71,2.75-6.14,5-10.27,6.74-4.14,1.74-9.2,2.61-15.2,2.61H13.7Z"/></svg>